<?xml version="1.0" encoding="UTF-8"?>
<svg version="1.1" xmlns="http://www.w3.org/2000/svg" width="102" height="102">
<path d="M0 0 C2.31 0.33 4.62 0.66 7 1 C7 2.32 7 3.64 7 5 C7.66 4.67 8.32 4.34 9 4 C16.8454756 3.12076567 24.49808525 4.64156762 31.0625 9.0625 C33.87139129 11.87139129 34.23914699 13.74208964 34.4375 17.625 C34.38666377 22.65052417 33.00363789 25.34997405 29.8984375 29.2109375 C27.47402146 31.49567525 24.80596571 33.21581452 22 35 C22.90363281 35.53109375 23.80726562 36.0621875 24.73828125 36.609375 C25.92994056 37.32249396 27.12133287 38.03605923 28.3125 38.75 C29.20485352 39.27207031 29.20485352 39.27207031 30.11523438 39.8046875 C33.45181249 41.81781843 36.1547374 43.51739171 38 47 C39.50024884 56.46102874 37.0684546 62.65302266 31.75 70.1875 C23.24266068 78.88818794 11.98583688 82.05304359 0.02929688 82.234375 C-0.66099609 82.23953125 -1.35128906 82.2446875 -2.0625 82.25 C-2.75666016 82.270625 -3.45082031 82.29125 -4.16601562 82.3125 C-8.6636863 82.34667034 -11.40727858 81.71596555 -15 79 C-15.66 78.34 -16.32 77.68 -17 77 C-16.67028521 73.70285207 -16.3773161 72.3773161 -14 70 C-11.0574037 70.30652045 -8.65457692 70.67271154 -6 72 C3.87998863 72.87598736 12.27117204 71.71166895 20.375 65.75 C23.50768567 62.46813882 25.69188384 59.36928594 27 55 C26.53938888 51.03874433 25.03839104 50.03279234 22 47.4375 C18.322153 44.96499782 14.41871106 43.49978307 10.234375 42.08984375 C7.5415673 40.77639384 6.4124796 39.6363061 5 37 C4.88671875 34.93359375 4.88671875 34.93359375 6 33 C8.29166255 31.84082787 10.41264517 30.92355344 12.8125 30.0625 C17.77099543 28.28109581 21.12522117 26.61685179 24 22 C24.33513594 18.79019864 24.33513594 18.79019864 24 16 C20.44152785 13.78252844 17.51461655 13.76110521 13.375 13.8125 C11.65410156 13.82216797 11.65410156 13.82216797 9.8984375 13.83203125 C7.0607447 13.80516183 7.0607447 13.80516183 5 15 C3.9484947 17.95408235 3.03573731 20.86102129 2.1875 23.875 C1.92614258 24.79015381 1.66478516 25.70530762 1.39550781 26.64819336 C-1.08939353 35.69699925 -2.78509245 44.86401712 -4.35083008 54.11083984 C-4.5392749 55.20992676 -4.72771973 56.30901367 -4.921875 57.44140625 C-5.16309082 58.90622437 -5.16309082 58.90622437 -5.40917969 60.40063477 C-5.98377039 62.92859641 -6.58220704 64.8314466 -8 67 C-10.9375 67.875 -10.9375 67.875 -14 68 C-17 66 -17 66 -17.78417969 62.34375 C-18.15702009 58.15018095 -17.50576798 54.58809793 -16.453125 50.5 C-16.28125671 49.82001953 -16.10938843 49.14003906 -15.93231201 48.43945312 C-15.5689291 47.01261732 -15.19882371 45.58747796 -14.82226562 44.1640625 C-14.25230015 42.0086982 -13.70251482 39.84897949 -13.15625 37.6875 C-11.4424733 30.98555403 -9.63701984 24.40895961 -7 18 C-7.56307861 18.30711914 -8.12615723 18.61423828 -8.70629883 18.93066406 C-12.57374423 21.01808376 -15.48121611 22.56484799 -20 22 C-20.2265625 19.6953125 -20.2265625 19.6953125 -20 17 C-18.4609375 15.3046875 -18.4609375 15.3046875 -16.375 13.875 C-15.64667969 13.37484375 -14.91835938 12.8746875 -14.16796875 12.359375 C-7.21551724 8 -7.21551724 8 -3 8 C-2.87625 7.236875 -2.7525 6.47375 -2.625 5.6875 C-2 3 -2 3 0 0 Z " fill="#2A4670" transform="translate(54,0)"/>
<path d="M0 0 C2.31 0.33 4.62 0.66 7 1 C7 2.32 7 3.64 7 5 C7.66 4.67 8.32 4.34 9 4 C16.8454756 3.12076567 24.49808525 4.64156762 31.0625 9.0625 C33.26774478 11.26774478 33.95441781 12.20633368 34.1328125 15.3125 C34.13023438 16.199375 34.12765625 17.08625 34.125 18 C34.12886719 19.3303125 34.12886719 19.3303125 34.1328125 20.6875 C34 23 34 23 33 25 C32.34 25 31.68 25 31 25 C31.09539062 24.32453125 31.19078125 23.6490625 31.2890625 22.953125 C31.39992187 22.06109375 31.51078125 21.1690625 31.625 20.25 C31.74101563 19.36828125 31.85703125 18.4865625 31.9765625 17.578125 C32.00298401 14.67175914 31.67827252 13.35975287 30 11 C22.72367393 6.12907098 14.40408499 6.56405323 6 7 C6.33 7.99 6.66 8.98 7 10 C7.98742187 10.04898437 8.97484375 10.09796875 9.9921875 10.1484375 C11.27351563 10.22320312 12.55484375 10.29796875 13.875 10.375 C15.15117188 10.44460938 16.42734375 10.51421875 17.7421875 10.5859375 C21 11 21 11 23 13 C21.86820313 13.06058594 20.73640625 13.12117187 19.5703125 13.18359375 C18.08852855 13.26799917 16.6067584 13.35264717 15.125 13.4375 C14.00544922 13.49647461 14.00544922 13.49647461 12.86328125 13.55664062 C8.80013136 13.71573624 8.80013136 13.71573624 5 15 C3.9484947 17.95408235 3.03573731 20.86102129 2.1875 23.875 C1.92614258 24.79015381 1.66478516 25.70530762 1.39550781 26.64819336 C-1.08939353 35.69699925 -2.78509245 44.86401712 -4.35083008 54.11083984 C-4.5392749 55.20992676 -4.72771973 56.30901367 -4.921875 57.44140625 C-5.16309082 58.90622437 -5.16309082 58.90622437 -5.40917969 60.40063477 C-5.98377039 62.92859641 -6.58220704 64.8314466 -8 67 C-10.9375 67.875 -10.9375 67.875 -14 68 C-17 66 -17 66 -17.78417969 62.34375 C-18.15702009 58.15018095 -17.50576798 54.58809793 -16.453125 50.5 C-16.28125671 49.82001953 -16.10938843 49.14003906 -15.93231201 48.43945312 C-15.5689291 47.01261732 -15.19882371 45.58747796 -14.82226562 44.1640625 C-14.25230015 42.0086982 -13.70251482 39.84897949 -13.15625 37.6875 C-11.4424733 30.98555403 -9.63701984 24.40895961 -7 18 C-7.56307861 18.30711914 -8.12615723 18.61423828 -8.70629883 18.93066406 C-12.57374423 21.01808376 -15.48121611 22.56484799 -20 22 C-20.2265625 19.6953125 -20.2265625 19.6953125 -20 17 C-18.4609375 15.3046875 -18.4609375 15.3046875 -16.375 13.875 C-15.64667969 13.37484375 -14.91835938 12.8746875 -14.16796875 12.359375 C-7.21551724 8 -7.21551724 8 -3 8 C-2.87625 7.236875 -2.7525 6.47375 -2.625 5.6875 C-2 3 -2 3 0 0 Z " fill="#344E75" transform="translate(54,0)"/>
<path d="M0 0 C17.34942239 -0.83277227 17.34942239 -0.83277227 25 4 C27.52151723 6.81816632 27.93835373 8.2602448 28.25 12 C28.02142702 14.74287576 27.62992629 17.32281325 27 20 C25.68 20.33 24.36 20.66 23 21 C22.34 19.35 21.68 17.7 21 16 C20.67 16 20.34 16 20 16 C19.731875 14.88625 19.46375 13.7725 19.1875 12.625 C18.34190981 8.78159049 18.34190981 8.78159049 15 7 C15.33 6.67 15.66 6.34 16 6 C15.01257813 5.95101563 14.02515625 5.90203125 13.0078125 5.8515625 C11.72648437 5.77679687 10.44515625 5.70203125 9.125 5.625 C7.84882812 5.55539063 6.57265625 5.48578125 5.2578125 5.4140625 C2 5 2 5 0 3 C0 2.01 0 1.02 0 0 Z " fill="#264574" transform="translate(59,6)"/>
<path d="M0 0 C2 2 2 2 2.265625 4.09375 C2.26046875 4.8878125 2.2553125 5.681875 2.25 6.5 C2.25515625 7.2940625 2.2603125 8.088125 2.265625 8.90625 C2 11 2 11 0 13 C-3.05690842 13.5510556 -5.94206283 13.5412772 -9 13 C-11.1875 10.875 -11.1875 10.875 -12 8 C-11.38464753 4.58137518 -10.57762097 2.63950893 -8.25 0.0625 C-5.13834561 -1.40689235 -3.25986025 -0.92126485 0 0 Z " fill="#E1733A" transform="translate(44,89)"/>
<path d="M0 0 C3.4375 -0.4375 3.4375 -0.4375 7 0 C9.85576764 2.30303842 9.98181881 3.85455051 10.4375 7.5 C10 11 10 11 8.375 13.5 C6 15 6 15 2.9375 15 C0 14 0 14 -1.9375 12.375 C-3.47143165 8.94621161 -2.85025994 6.59725359 -2 3 C-1.34 2.01 -0.68 1.02 0 0 Z " fill="#9C7158" transform="translate(16,76)"/>
<path d="M0 0 C2.9425963 0.30652045 5.34542308 0.67271154 8 2 C10.0374763 2.22858114 12.08040303 2.41024278 14.125 2.5625 C15.76855469 2.68818359 15.76855469 2.68818359 17.4453125 2.81640625 C18.28835937 2.87699219 19.13140625 2.93757813 20 3 C20 3.66 20 4.32 20 5 C13.2718373 5.22262303 7.46008837 4.95021536 1 3 C1 4.32 1 5.64 1 7 C3.31 7.33 5.62 7.66 8 8 C8 8.33 8 8.66 8 9 C15.40239645 9.12886183 22.63959083 8.79725902 30 8 C30 8.66 30 9.32 30 10 C23.91134797 11.63925247 17.96688246 12.23767693 11.6875 12.3125 C11.00623047 12.32990234 10.32496094 12.34730469 9.62304688 12.36523438 C4.04391351 12.3597485 0.89332448 10.89332448 -3 7 C-2.67028521 3.70285207 -2.3773161 2.3773161 0 0 Z " fill="#465369" transform="translate(40,70)"/>
<path d="M0 0 C1.67542976 0.28604898 3.34385343 0.61781233 5 1 C2.47211993 3.79872437 0.79588866 5.45773019 -3 6 C-0.83312509 8.27521866 1.45620509 10.15794162 4 12 C1.36 11.67 -1.28 11.34 -4 11 C-4 11.33 -4 11.66 -4 12 C-9.625 12.25 -9.625 12.25 -13 10 C-13.1875 6.875 -13.1875 6.875 -13 4 C-11.56445975 3.49440092 -10.1264798 2.9957251 -8.6875 2.5 C-7.88699219 2.2215625 -7.08648437 1.943125 -6.26171875 1.65625 C-4 1 -4 1 -1 1 C-0.67 0.67 -0.34 0.34 0 0 Z " fill="#294671" transform="translate(75,28)"/>
<path d="M0 0 C3.0625 0.375 3.0625 0.375 4.9375 2.0625 C6.26857683 4.79860236 6.52483717 6.36980842 6.0625 9.375 C4.875 11.1875 4.875 11.1875 3.0625 12.375 C0.5625 12.8125 0.5625 12.8125 -1.9375 12.375 C-4.51159193 10.06719344 -4.90489779 8.70102209 -5.25 5.25 C-4.8154665 1.25229179 -3.97436775 0.5073661 0 0 Z " fill="#B07455" transform="translate(25.9375,55.625)"/>
<path d="M0 0 C0.33 0 0.66 0 1 0 C1.33 2.97 1.66 5.94 2 9 C2.99 9.33 3.98 9.66 5 10 C3.48328036 14.55015893 -0.16891053 16.50057264 -4 19 C-2.68 20.32 -1.36 21.64 0 23 C-4.31392226 22.5206753 -6.16569547 21.2542015 -9 18 C-6.33440687 16.22293791 -3.9719385 15.12451727 -1 14 C-3.60582371 13.06934867 -4.64198224 12.85082593 -7.25 13.9375 C-7.8275 14.288125 -8.405 14.63875 -9 15 C-7.76448756 11.29346269 -6.03334922 10.35084565 -3 8 C-2.67 7.34 -2.34 6.68 -2 6 C-1.34 6 -0.68 6 0 6 C0 4.02 0 2.04 0 0 Z " fill="#455670" transform="translate(80,16)"/>
<path d="M0 0 C2.375 -0.1875 2.375 -0.1875 5 0 C7 3 7 3 6.75 5.4375 C6.05282249 7.81952314 5.20252143 9.83546142 4 12 C2.125 11.75 2.125 11.75 0 11 C-1.3125 9.125 -1.3125 9.125 -2 7 C-1.67 6.01 -1.34 5.02 -1 4 C-0.65772583 2.66893378 -0.32248257 1.33599921 0 0 Z " fill="#EA7536" transform="translate(17,78)"/>
<path d="M0 0 C0.391875 0.515625 0.78375 1.03125 1.1875 1.5625 C1.785625 2.036875 2.38375 2.51125 3 3 C5.55936559 2.67147918 5.55936559 2.67147918 8 2 C8.66 2.33 9.32 2.66 10 3 C8.17860018 6.64279963 3.69306005 7.68328929 0 9 C-3.0625 9.25 -3.0625 9.25 -5 9 C-5.3125 6.75 -5.3125 6.75 -5 4 C-2.5 1.6875 -2.5 1.6875 0 0 Z " fill="#283D5E" transform="translate(39,13)"/>
<path d="M0 0 C2.42522207 2.42522207 2.29629254 3.1720679 2.3125 6.5 C2.33763672 7.69109375 2.33763672 7.69109375 2.36328125 8.90625 C2.24339844 9.5971875 2.12351562 10.288125 2 11 C1.01 11.66 0.02 12.32 -1 13 C-1.33 12.34 -1.66 11.68 -2 11 C-1.34 11 -0.68 11 0 11 C-0.33 8.03 -0.66 5.06 -1 2 C-2.65 1.67 -4.3 1.34 -6 1 C-6 1.66 -6 2.32 -6 3 C-6.99 3 -7.98 3 -9 3 C-9.33 5.64 -9.66 8.28 -10 11 C-10.66 10.01 -11.32 9.02 -12 8 C-11.30990178 4.68752856 -10.52668852 2.58311943 -8.25 0.0625 C-5.13834561 -1.40689235 -3.25986025 -0.92126485 0 0 Z " fill="#A56F53" transform="translate(44,89)"/>
<path d="M0 0 C2.31 0.33 4.62 0.66 7 1 C7 2.32 7 3.64 7 5 C7.99 4.67 8.98 4.34 10 4 C9.67 4.99 9.34 5.98 9 7 C7.35 6.67 5.7 6.34 4 6 C4 5.01 4 4.02 4 3 C1.9754262 4.93254772 0.57894208 6.63158688 -1 9 C-1.66 9 -2.32 9 -3 9 C-2.5020163 5.26512223 -2.12508244 3.18762365 0 0 Z " fill="#344869" transform="translate(54,0)"/>
<path d="M0 0 C0.80162043 2.32211338 1.13137748 3.5945836 0.36328125 5.96484375 C-1.7757812 9.98055578 -3.98370953 13.5528109 -7 17 C-7.99 16.67 -8.98 16.34 -10 16 C-8.25518455 11.46347982 -6.88035814 8.12932108 -3 5 C-2.34 5 -1.68 5 -1 5 C-0.67 3.35 -0.34 1.7 0 0 Z " fill="#4A5872" transform="translate(91,55)"/>
<path d="M0 0 C0.66 0 1.32 0 2 0 C2 3.96 2 7.92 2 12 C4.64 11.67 7.28 11.34 10 11 C9.67 11.99 9.34 12.98 9 14 C6.1875 14.625 6.1875 14.625 3 15 C2.01 14.34 1.02 13.68 0 13 C-0.91903707 8.32822823 -1.30458348 4.63851904 0 0 Z " fill="#4E5A6A" transform="translate(37,53)"/>
<path d="M0 0 C2.39652528 -0.08139142 4.79025436 -0.14067009 7.1875 -0.1875 C7.86103516 -0.21263672 8.53457031 -0.23777344 9.22851562 -0.26367188 C13.69751197 -0.32907182 16.45618488 0.24369935 20 3 C21.4783226 5.95664519 21.06032783 8.74229737 21 12 C20.01 12 19.02 12 18 12 C17.731875 10.88625 17.46375 9.7725 17.1875 8.625 C16.34190981 4.78159049 16.34190981 4.78159049 13 3 C13.33 2.67 13.66 2.34 14 2 C7.07 1.505 7.07 1.505 0 1 C0 0.67 0 0.34 0 0 Z " fill="#243A5B" transform="translate(61,10)"/>
<path d="M0 0 C1.87365234 -0.02126953 1.87365234 -0.02126953 3.78515625 -0.04296875 C6.9375 0.1875 6.9375 0.1875 8.9375 2.1875 C7.81730469 2.22488281 6.69710937 2.26226562 5.54296875 2.30078125 C4.0702791 2.36644257 2.59762434 2.43288986 1.125 2.5 C0.38701172 2.52255859 -0.35097656 2.54511719 -1.11132812 2.56835938 C-5.35361942 2.71101103 -5.35361942 2.71101103 -8.94921875 4.73046875 C-9.50029297 5.45169922 -9.50029297 5.45169922 -10.0625 6.1875 C-10.7225 6.1875 -11.3825 6.1875 -12.0625 6.1875 C-11.25 3.75 -11.25 3.75 -10.0625 1.1875 C-6.55538381 0.01846127 -3.69467614 0.01910381 0 0 Z " fill="#606D80" transform="translate(68.0625,10.8125)"/>
<path d="M0 0 C1.5 1.0625 1.5 1.0625 3 3 C3.51288911 7.02984298 3.60859399 9.13058002 1.25 12.5 C-1 14 -1 14 -3.25 13.75 C-4.11625 13.37875 -4.11625 13.37875 -5 13 C-4.154375 12.319375 -3.30875 11.63875 -2.4375 10.9375 C0.44231209 8.15273189 0.44231209 8.15273189 -0.25 4.25 C-0.4975 3.1775 -0.745 2.105 -1 1 C-0.67 0.67 -0.34 0.34 0 0 Z " fill="#A46446" transform="translate(23,77)"/>
<path d="M0 0 C1.66611905 -0.042721 3.33382885 -0.04063832 5 0 C6 1 6 1 6.0625 4.5625 C6.041875 5.696875 6.02125 6.83125 6 8 C3.13275314 7.42655063 2.1385485 7.1385485 0 5 C-0.125 2.375 -0.125 2.375 0 0 Z " fill="#E97437" transform="translate(23,59)"/>
<path d="M0 0 C0 0.66 0 1.32 0 2 C-3.0682638 2.89749822 -5.79269976 3.11711768 -8.984375 3.09765625 C-9.91894531 3.09443359 -10.85351562 3.09121094 -11.81640625 3.08789062 C-12.78449219 3.07951172 -13.75257812 3.07113281 -14.75 3.0625 C-15.73355469 3.05798828 -16.71710937 3.05347656 -17.73046875 3.04882812 C-20.15370791 3.03706483 -22.57682273 3.02062684 -25 3 C-25 2.67 -25 2.34 -25 2 C-21.77125066 1.66254072 -18.5419413 1.33076631 -15.3125 1 C-13.94448242 0.85691406 -13.94448242 0.85691406 -12.54882812 0.7109375 C-11.21948242 0.57558594 -11.21948242 0.57558594 -9.86328125 0.4375 C-9.05157471 0.35371094 -8.23986816 0.26992187 -7.40356445 0.18359375 C-4.92615534 -0.00564055 -2.4836252 -0.03092452 0 0 Z " fill="#66738B" transform="translate(70,78)"/>
<path d="M0 0 C0 3 0 3 -2 6 C0.64 5.34 3.28 4.68 6 4 C4 7 4 7 2.0546875 7.51171875 C1.33539063 7.56972656 0.61609375 7.62773437 -0.125 7.6875 C-2.043125 7.8421875 -2.043125 7.8421875 -4 8 C-4.25 5.6875 -4.25 5.6875 -4 3 C-2 1.1875 -2 1.1875 0 0 Z " fill="#596271" transform="translate(38,14)"/>
<path d="M0 0 C1.65 0 3.3 0 5 0 C5 0.99 5 1.98 5 3 C0.77777778 6 0.77777778 6 -2 6 C-2.33 4.68 -2.66 3.36 -3 2 C-2.01 2 -1.02 2 0 2 C0 1.34 0 0.68 0 0 Z " fill="#ED7330" transform="translate(38,90)"/>
<path d="M0 0 C1.67542976 0.28604898 3.34385343 0.61781233 5 1 C3.375 3.0625 3.375 3.0625 1 5 C-2.25 4.75 -2.25 4.75 -5 4 C-4.67 3.01 -4.34 2.02 -4 1 C-3.01 1 -2.02 1 -1 1 C-0.67 0.67 -0.34 0.34 0 0 Z " fill="#233F6A" transform="translate(75,28)"/>
<path d="M0 0 C3.68754757 0.49831724 5.60490662 1.10067643 8 4 C2.25 5.125 2.25 5.125 0 4 C0 2.68 0 1.36 0 0 Z " fill="#25487E" transform="translate(41,73)"/>
<path d="M0 0 C0.33 0.66 0.66 1.32 1 2 C0.67 2.66 0.34 3.32 0 4 C-0.99 4 -1.98 4 -3 4 C-3.33 6.64 -3.66 9.28 -4 12 C-4.66 11.01 -5.32 10.02 -6 9 C-5.26299754 5.46238821 -4.60744131 3.53597763 -1.875 1.125 C-1.25625 0.75375 -0.6375 0.3825 0 0 Z " fill="#8E6551" transform="translate(38,88)"/>
<path d="M0 0 C0.66 0 1.32 0 2 0 C2.061875 0.9075 2.12375 1.815 2.1875 2.75 C3.18446044 6.73784176 4.64888166 7.76592111 8 10 C5.6875 10.25 5.6875 10.25 3 10 C0.34684029 7.62130509 0.01896655 6.32875347 -0.1875 2.75 C-0.125625 1.8425 -0.06375 0.935 0 0 Z " fill="#86634E" transform="translate(21,58)"/>
<path d="M0 0 C0.66 0 1.32 0 2 0 C2.0825 0.763125 2.165 1.52625 2.25 2.3125 C3.14615794 5.52373261 4.21611025 6.29374499 7 8 C4.6875 8.25 4.6875 8.25 2 8 C0.125 6.25 0.125 6.25 -1 4 C-0.6875 1.75 -0.6875 1.75 0 0 Z " fill="#495265" transform="translate(60,33)"/>
<path d="M0 0 C2.33944736 0.28730055 4.6739143 0.61936779 7 1 C7 1.66 7 2.32 7 3 C6.071875 2.9175 5.14375 2.835 4.1875 2.75 C0.90894778 2.64696955 0.90894778 2.64696955 -0.875 5 C-1.24625 5.66 -1.6175 6.32 -2 7 C-1.125 1.125 -1.125 1.125 0 0 Z " fill="#697281" transform="translate(54,0)"/>
<path d="M0 0 C0 0.99 0 1.98 0 3 C-0.66 3 -1.32 3 -2 3 C-2.33 3.99 -2.66 4.98 -3 6 C-4.32 6 -5.64 6 -7 6 C-6 3 -6 3 -2.9375 1.3125 C-1.968125 0.879375 -0.99875 0.44625 0 0 Z " fill="#4C5A74" transform="translate(73,67)"/>
<path d="M0 0 C0.33 0.66 0.66 1.32 1 2 C1.66 2.33 2.32 2.66 3 3 C-0.37097383 4.49821059 -2.20442119 5 -6 5 C-6 4.34 -6 3.68 -6 3 C-4.02 2.01 -2.04 1.02 0 0 Z " fill="#3D4C67" transform="translate(46,9)"/>
<path d="M0 0 C-0.33 0.99 -0.66 1.98 -1 3 C-2.98 3.33 -4.96 3.66 -7 4 C-6.67 3.01 -6.34 2.02 -6 1 C-4 0 -4 0 0 0 Z " fill="#3E4F66" transform="translate(80,73)"/>
<path d="M0 0 C1.2380014 3.57644848 0.74926071 6.33694766 0 10 C-0.66 10 -1.32 10 -2 10 C-2.25 3.375 -2.25 3.375 0 0 Z " fill="#4E5E76" transform="translate(48,52)"/>
<path d="M0 0 C0.66 0 1.32 0 2 0 C1.75 2.375 1.75 2.375 1 5 C-1.0625 6.3125 -1.0625 6.3125 -3 7 C-2.38722388 4.03824877 -1.74627478 2.61941217 0 0 Z " fill="#474749" transform="translate(99,45)"/>
<path d="M0 0 C0 0.99 0 1.98 0 3 C-3 3 -3 3 -4.6875 1.5 C-5.120625 1.005 -5.55375 0.51 -6 0 C-3.50907189 -1.24546405 -2.58919267 -0.7767578 0 0 Z " fill="#33405C" transform="translate(81,46)"/>
<path d="M0 0 C1.65 0 3.3 0 5 0 C5.33 1.65 5.66 3.3 6 5 C5.34 5 4.68 5 4 5 C3.67 4.34 3.34 3.68 3 3 C2.01 2.67 1.02 2.34 0 2 C0 1.34 0 0.68 0 0 Z " fill="#EF6E2C" transform="translate(17,78)"/>
<path d="M0 0 C3.16115776 1.36983503 3.9927092 1.9890638 6 5 C5.67 5.99 5.34 6.98 5 8 C2 4.25 2 4.25 2 2 C1.34 2 0.68 2 0 2 C0 1.34 0 0.68 0 0 Z " fill="#606A7C" transform="translate(86,42)"/>
</svg>
